<svg width="40" height="40" viewBox="0 0 40 40" fill="none" xmlns="http://www.w3.org/2000/svg">
<path d="M40 31.4286V40H0V31.4286C0.669643 31.4286 1.30208 31.3244 1.89732 31.1161C2.49256 30.9077 2.93155 30.7031 3.21429 30.5022C3.49702 30.3013 3.84673 30.0223 4.26339 29.6652C4.70982 29.2634 5.09301 28.9807 5.41295 28.817C5.73289 28.6533 6.15327 28.5714 6.67411 28.5714C7.19494 28.5714 7.60789 28.6533 7.91295 28.817C8.21801 28.9807 8.60863 29.2634 9.08482 29.6652C9.51637 30.0372 9.86607 30.3199 10.1339 30.5134C10.4018 30.7068 10.8333 30.9077 11.4286 31.1161C12.0238 31.3244 12.6637 31.4286 13.3482 31.4286C14.0179 31.4286 14.6503 31.3207 15.2455 31.1049C15.8408 30.8891 16.2723 30.6882 16.5402 30.5022C16.808 30.3162 17.1652 30.0372 17.6116 29.6652C17.9241 29.3824 18.1659 29.1815 18.3371 29.0625C18.5082 28.9435 18.7388 28.8318 19.029 28.7277C19.3192 28.6235 19.6429 28.5714 20 28.5714C20.5208 28.5714 20.9412 28.6533 21.2612 28.817C21.5811 28.9807 21.9643 29.2634 22.4107 29.6652C22.8274 30.0223 23.1771 30.3013 23.4598 30.5022C23.7426 30.7031 24.1815 30.9077 24.7768 31.1161C25.372 31.3244 26.0045 31.4286 26.6741 31.4286C27.3438 31.4286 27.9762 31.3244 28.5714 31.1161C29.1667 30.9077 29.6057 30.7031 29.8884 30.5022C30.1711 30.3013 30.5208 30.0223 30.9375 29.6652C31.3839 29.2634 31.7671 28.9807 32.0871 28.817C32.407 28.6533 32.8274 28.5714 33.3482 28.5714C33.8542 28.5714 34.2671 28.6533 34.5871 28.817C34.907 28.9807 35.2902 29.2634 35.7366 29.6652C36.1533 30.0223 36.503 30.3013 36.7857 30.5022C37.0685 30.7031 37.5074 30.9077 38.1027 31.1161C38.6979 31.3244 39.3304 31.4286 40 31.4286ZM40 24.2857V28.5714C39.4792 28.5714 39.0662 28.4896 38.7612 28.3259C38.4561 28.1622 38.0655 27.8795 37.5893 27.4777C37.1577 27.1057 36.808 26.8229 36.5402 26.6295C36.2723 26.436 35.8408 26.2351 35.2455 26.0268C34.6503 25.8185 34.0179 25.7143 33.3482 25.7143C32.6637 25.7143 32.0238 25.8185 31.4286 26.0268C30.8333 26.2351 30.4018 26.436 30.1339 26.6295C29.8661 26.8229 29.5164 27.1057 29.0848 27.4777C28.7574 27.7604 28.5119 27.9613 28.3482 28.0804C28.1845 28.1994 27.9539 28.311 27.6563 28.4152C27.3586 28.5193 27.0313 28.5714 26.6741 28.5714C26.1533 28.5714 25.7329 28.4896 25.4129 28.3259C25.093 28.1622 24.7098 27.8795 24.2634 27.4777C23.8318 27.1057 23.4821 26.8229 23.2143 26.6295C22.9464 26.436 22.5149 26.2351 21.9196 26.0268C21.3244 25.8185 20.6845 25.7143 20 25.7143C19.3304 25.7143 18.6979 25.8222 18.1027 26.0379C17.5074 26.2537 17.0759 26.4546 16.808 26.6406C16.5402 26.8266 16.183 27.1057 15.7366 27.4777C15.4241 27.7604 15.1823 27.9613 15.0112 28.0804C14.84 28.1994 14.6094 28.311 14.3192 28.4152C14.029 28.5193 13.7054 28.5714 13.3482 28.5714C12.8274 28.5714 12.407 28.4896 12.0871 28.3259C11.7671 28.1622 11.3839 27.8795 10.9375 27.4777C10.5208 27.1205 10.1711 26.8415 9.88839 26.6406C9.60565 26.4397 9.16667 26.2351 8.57143 26.0268C7.97619 25.8185 7.34375 25.7143 6.67411 25.7143C5.98958 25.7143 5.3497 25.8185 4.75446 26.0268C4.15923 26.2351 3.72768 26.436 3.45982 26.6295C3.19196 26.8229 2.84226 27.1057 2.41071 27.4777C1.96429 27.8795 1.5811 28.1622 1.26116 28.3259C0.94122 28.4896 0.520833 28.5714 0 28.5714V24.2857C0 23.0952 0.416667 22.0833 1.25 21.25C2.08333 20.4167 3.09524 20 4.28571 20H5.71429V10H11.4286V20H17.1429V10H22.8571V20H28.5714V10H34.2857V20H35.7143C36.9048 20 37.9167 20.4167 38.75 21.25C39.5833 22.0833 40 23.0952 40 24.2857ZM11.4286 5C11.4286 6.14583 11.1607 7.02753 10.625 7.64509C10.0893 8.26265 9.40476 8.57143 8.57143 8.57143C7.78274 8.57143 7.10938 8.29241 6.55134 7.73438C5.9933 7.17634 5.71429 6.50298 5.71429 5.71429C5.71429 5.28274 5.78497 4.90327 5.92634 4.57589C6.06771 4.24851 6.24256 3.99554 6.45089 3.81696C6.65923 3.63839 6.88988 3.43006 7.14286 3.19196C7.39583 2.95387 7.62649 2.71949 7.83482 2.48884C8.04315 2.25818 8.21801 1.92708 8.35938 1.49554C8.50074 1.06399 8.57143 0.565476 8.57143 0C9.1369 0 9.75446 0.550595 10.4241 1.65179C11.0938 2.75298 11.4286 3.86905 11.4286 5ZM22.8571 5C22.8571 6.14583 22.5893 7.02753 22.0536 7.64509C21.5179 8.26265 20.8333 8.57143 20 8.57143C19.2113 8.57143 18.5379 8.29241 17.9799 7.73438C17.4219 7.17634 17.1429 6.50298 17.1429 5.71429C17.1429 5.28274 17.2135 4.90327 17.3549 4.57589C17.4963 4.24851 17.6711 3.99554 17.8795 3.81696C18.0878 3.63839 18.3185 3.43006 18.5714 3.19196C18.8244 2.95387 19.0551 2.71949 19.2634 2.48884C19.4717 2.25818 19.6466 1.92708 19.7879 1.49554C19.9293 1.06399 20 0.565476 20 0C20.5655 0 21.183 0.550595 21.8527 1.65179C22.5223 2.75298 22.8571 3.86905 22.8571 5ZM34.2857 5C34.2857 6.14583 34.0179 7.02753 33.4821 7.64509C32.9464 8.26265 32.2619 8.57143 31.4286 8.57143C30.6399 8.57143 29.9665 8.29241 29.4085 7.73438C28.8504 7.17634 28.5714 6.50298 28.5714 5.71429C28.5714 5.28274 28.6421 4.90327 28.7835 4.57589C28.9249 4.24851 29.0997 3.99554 29.308 3.81696C29.5164 3.63839 29.747 3.43006 30 3.19196C30.253 2.95387 30.4836 2.71949 30.692 2.48884C30.9003 2.25818 31.0751 1.92708 31.2165 1.49554C31.3579 1.06399 31.4286 0.565476 31.4286 0C31.994 0 32.6116 0.550595 33.2813 1.65179C33.9509 2.75298 34.2857 3.86905 34.2857 5Z" fill="#464555"/>
</svg>
