<svg width="36" height="36" viewBox="0 0 36 36" fill="none" xmlns="http://www.w3.org/2000/svg">
<g clip-path="url(#clip0_58_101)">
<path fill-rule="evenodd" clip-rule="evenodd" d="M32 0H4C1.8 0 0 1.8 0 4V32C0 34.2 1.8 36 4 36H32C34.2 36 36 34.2 36 32V4C36 1.8 34.2 0 32 0ZM12 28H8V24H12V28ZM12 20H8V16H12V20ZM12 12H8V8H12V12ZM28 28H14V24H28V28ZM28 20H14V16H28V20ZM28 12H14V8H28V12Z" fill="#2E67F8"/>
</g>
<defs>
<clipPath id="clip0_58_101">
<rect width="36" height="36" fill="white"/>
</clipPath>
</defs>
</svg>
