<svg width="30" height="40" viewBox="0 0 30 40" fill="none" xmlns="http://www.w3.org/2000/svg">
<g clip-path="url(#clip0_561_388)">
<path d="M15 0C6.71641 0 0 6.71641 0 15C0 21.0477 2.10703 22.7367 13.4609 39.1953C14.2055 40.2711 15.7977 40.2711 16.5422 39.1953C27.8906 22.7344 30 21.0469 30 15C30 6.71641 23.2812 0 15 0ZM15 21.1797C11.5523 21.1797 8.75 18.3766 8.75 14.9297C8.75 11.4828 11.5547 8.67969 15 8.67969C18.4453 8.67969 21.25 11.4828 21.25 14.9297C21.25 18.3766 18.4453 21.1797 15 21.1797Z" fill="#ABA9BC"/>
</g>
<defs>
<clipPath id="clip0_561_388">
<rect width="30" height="40" fill="white"/>
</clipPath>
</defs>
</svg>
