<svg width="20" height="24" viewBox="0 0 20 24" fill="none" xmlns="http://www.w3.org/2000/svg">
<path d="M18 10.0001H14H6V7.20008C6 5.10008 7.5 3.20008 9.6 3.00008C12 2.80008 14 4.70008 14 7.00008C14 7.60008 14.4 8.00008 15 8.00008H16C16.6 8.00008 17 7.60008 17 7.00008C17 3.20008 14 0.100085 10.2 8.45874e-05C6.3 -0.0999154 3 3.10008 3 7.00008V10.0001H2C0.9 10.0001 0 10.9001 0 12.0001V19.0001C0 21.8001 2.2 24.0001 5 24.0001H15C17.8 24.0001 20 21.8001 20 19.0001V12.0001C20 10.9001 19.1 10.0001 18 10.0001ZM11 17.7001V19.0001C11 19.5001 10.5 20.0001 10 20.0001C9.5 20.0001 9 19.5001 9 19.0001V17.7001C8.4 17.4001 8 16.7001 8 16.0001C8 14.9001 8.9 14.0001 10 14.0001C11.1 14.0001 12 14.9001 12 16.0001C12 16.7001 11.6 17.4001 11 17.7001Z" fill="#464555"/>
</svg>
