<svg width="22" height="22" viewBox="0 0 22 22" fill="none" xmlns="http://www.w3.org/2000/svg">
<path d="M10.9996 13.1791C14.0324 13.1791 16.4909 10.2289 16.4909 6.58956C16.4909 2.95025 14.0324 0 10.9996 0C7.96684 0 5.5083 2.95025 5.5083 6.58956C5.5083 10.2289 7.96684 13.1791 10.9996 13.1791Z" fill="#464555"/>
<path d="M21.7629 18.7802C20.7745 16.8033 18.9075 15.1559 16.4913 14.1675C15.8323 13.9478 15.0636 13.9478 14.5144 14.2773C13.4162 14.9363 12.3179 15.2657 11 15.2657C9.68209 15.2657 8.58383 14.9363 7.48557 14.2773C6.93644 14.0577 6.16766 13.9478 5.5087 14.2773C3.09253 15.2657 1.22548 16.9131 0.23705 18.89C-0.531732 20.3177 0.676354 21.9651 2.32374 21.9651H19.6763C21.3236 21.9651 22.5317 20.3177 21.7629 18.7802Z" fill="#464555"/>
</svg>
